<svg width="100" height="40" viewBox="0 0 100 40" fill="none" xmlns="http://www.w3.org/2000/svg">
<rect width="100" height="40" rx="6" fill="#282A36"/>
<g clip-path="url(#clip0)">
<path d="M20 34.9999C28.2843 34.9999 35 28.2842 35 19.9999C35 11.7157 28.2843 4.99994 20 4.99994C11.7157 4.99994 5 11.7157 5 19.9999C5 28.2842 11.7157 34.9999 20 34.9999Z" fill="#F45078"/>
<path d="M23.6605 19.7679H20.9839V29.5736H16.9287V19.7679H15V16.3218H16.9287V14.0918C16.9287 12.4971 17.6862 9.99994 21.02 9.99994L24.0239 10.0125V13.3575H21.8444C21.4869 13.3575 20.9842 13.5362 20.9842 14.2969V16.325H24.0148L23.6605 19.7679Z" fill="white"/>
</g>
<path d="M47.8946 20.5136H44.5196V23.9999H42.7617V15.4687H48.3164V16.8925H44.5196V19.0956H47.8946V20.5136ZM52.6992 23.9999C52.6211 23.8476 52.5645 23.6581 52.5293 23.4316C52.1192 23.8886 51.586 24.1171 50.9297 24.1171C50.3086 24.1171 49.793 23.9374 49.3828 23.5781C48.9766 23.2187 48.7735 22.7656 48.7735 22.2187C48.7735 21.5468 49.0215 21.0312 49.5176 20.6718C50.0176 20.3124 50.7383 20.1308 51.6797 20.1269H52.459V19.7636C52.459 19.4706 52.3828 19.2363 52.2305 19.0605C52.0821 18.8847 51.8457 18.7968 51.5215 18.7968C51.2364 18.7968 51.0117 18.8652 50.8477 19.0019C50.6875 19.1386 50.6075 19.3261 50.6075 19.5644H48.9141C48.9141 19.1972 49.0274 18.8574 49.2539 18.5449C49.4805 18.2324 49.8008 17.9882 50.2149 17.8124C50.6289 17.6328 51.0938 17.5429 51.6094 17.5429C52.3907 17.5429 53.0098 17.7402 53.4668 18.1347C53.9278 18.5253 54.1582 19.0761 54.1582 19.787V22.5351C54.1621 23.1367 54.2461 23.5917 54.4102 23.9003V23.9999H52.6992ZM51.2989 22.8222C51.5489 22.8222 51.7793 22.7675 51.9903 22.6581C52.2012 22.5449 52.3575 22.3945 52.459 22.207V21.1171H51.8262C50.9785 21.1171 50.5274 21.4101 50.4727 21.996L50.4668 22.0956C50.4668 22.3066 50.541 22.4804 50.6895 22.6171C50.8379 22.7538 51.041 22.8222 51.2989 22.8222ZM58.0957 22.7519C58.4082 22.7519 58.6621 22.666 58.8575 22.4941C59.0528 22.3222 59.1543 22.0937 59.1621 21.8085H60.75C60.7461 22.2382 60.6289 22.6328 60.3985 22.9921C60.168 23.3476 59.8516 23.6249 59.4492 23.8242C59.0508 24.0195 58.6094 24.1171 58.125 24.1171C57.2188 24.1171 56.5039 23.83 55.9805 23.2558C55.4571 22.6777 55.1953 21.8808 55.1953 20.8652V20.7538C55.1953 19.7773 55.4551 18.998 55.9746 18.416C56.4942 17.8339 57.2071 17.5429 58.1133 17.5429C58.9063 17.5429 59.541 17.7695 60.0176 18.2226C60.4981 18.6718 60.7422 19.2714 60.75 20.0214H59.1621C59.1543 19.6933 59.0528 19.4277 58.8575 19.2245C58.6621 19.0175 58.4043 18.914 58.084 18.914C57.6895 18.914 57.3907 19.0585 57.1875 19.3476C56.9883 19.6328 56.8887 20.0976 56.8887 20.7421V20.9179C56.8887 21.5703 56.9883 22.039 57.1875 22.3242C57.3867 22.6093 57.6895 22.7519 58.0957 22.7519ZM64.6348 24.1171C63.7051 24.1171 62.9473 23.832 62.3614 23.2617C61.7793 22.6913 61.4883 21.9316 61.4883 20.9824V20.8183C61.4883 20.1816 61.6114 19.6132 61.8575 19.1132C62.1035 18.6093 62.4512 18.2226 62.9004 17.9531C63.3535 17.6796 63.8692 17.5429 64.4473 17.5429C65.3145 17.5429 65.9961 17.8163 66.4922 18.3632C66.9922 18.9101 67.2422 19.6855 67.2422 20.6894V21.3808H63.2051C63.2598 21.7949 63.4239 22.1269 63.6973 22.3769C63.9746 22.6269 64.3242 22.7519 64.7461 22.7519C65.3985 22.7519 65.9082 22.5156 66.2754 22.0429L67.1075 22.9745C66.8535 23.3339 66.5098 23.6152 66.0762 23.8183C65.6426 24.0175 65.1621 24.1171 64.6348 24.1171ZM64.4414 18.914C64.1055 18.914 63.8321 19.0273 63.6211 19.2538C63.4141 19.4804 63.2813 19.8046 63.2227 20.2265H65.5782V20.0917C65.5703 19.7167 65.4688 19.4277 65.2735 19.2245C65.0782 19.0175 64.8008 18.914 64.4414 18.914ZM73.9219 20.8886C73.9219 21.9042 73.7051 22.6972 73.2715 23.2675C72.8379 23.8339 72.2325 24.1171 71.4551 24.1171C70.7676 24.1171 70.2188 23.8535 69.8086 23.3261L69.7325 23.9999H68.209V14.9999H69.9024V18.2285C70.293 17.7714 70.8067 17.5429 71.4434 17.5429C72.2168 17.5429 72.8223 17.8281 73.2598 18.3984C73.7012 18.9648 73.9219 19.7636 73.9219 20.7949V20.8886ZM72.2285 20.7656C72.2285 20.1249 72.127 19.6581 71.9239 19.3652C71.7207 19.0683 71.418 18.9199 71.0157 18.9199C70.4766 18.9199 70.1055 19.1406 69.9024 19.582V22.0839C70.1094 22.5292 70.4844 22.7519 71.0274 22.7519C71.5742 22.7519 71.9336 22.4824 72.1055 21.9433C72.1875 21.6855 72.2285 21.2929 72.2285 20.7656ZM74.7071 20.7714C74.7071 20.1425 74.8282 19.582 75.0703 19.0898C75.3125 18.5976 75.6602 18.2167 76.1133 17.9472C76.5703 17.6777 77.0996 17.5429 77.7012 17.5429C78.5567 17.5429 79.2539 17.8046 79.793 18.3281C80.336 18.8515 80.6387 19.5624 80.7012 20.4609L80.7129 20.8945C80.7129 21.8671 80.4414 22.6484 79.8985 23.2382C79.3555 23.8242 78.627 24.1171 77.7129 24.1171C76.7989 24.1171 76.0684 23.8242 75.5215 23.2382C74.9785 22.6523 74.7071 21.8554 74.7071 20.8476V20.7714ZM76.4004 20.8945C76.4004 21.496 76.5137 21.957 76.7403 22.2773C76.9668 22.5937 77.291 22.7519 77.7129 22.7519C78.1231 22.7519 78.4434 22.5956 78.6739 22.2831C78.9043 21.9667 79.0196 21.4628 79.0196 20.7714C79.0196 20.1816 78.9043 19.7245 78.6739 19.4003C78.4434 19.0761 78.1192 18.914 77.7012 18.914C77.2871 18.914 76.9668 19.0761 76.7403 19.4003C76.5137 19.7206 76.4004 20.2187 76.4004 20.8945ZM81.4922 20.7714C81.4922 20.1425 81.6133 19.582 81.8555 19.0898C82.0977 18.5976 82.4453 18.2167 82.8985 17.9472C83.3555 17.6777 83.8848 17.5429 84.4864 17.5429C85.3418 17.5429 86.0391 17.8046 86.5782 18.3281C87.1211 18.8515 87.4239 19.5624 87.4864 20.4609L87.4981 20.8945C87.4981 21.8671 87.2266 22.6484 86.6836 23.2382C86.1407 23.8242 85.4121 24.1171 84.4981 24.1171C83.584 24.1171 82.8535 23.8242 82.3067 23.2382C81.7637 22.6523 81.4922 21.8554 81.4922 20.8476V20.7714ZM83.1856 20.8945C83.1856 21.496 83.2989 21.957 83.5254 22.2773C83.752 22.5937 84.0762 22.7519 84.4981 22.7519C84.9082 22.7519 85.2285 22.5956 85.459 22.2831C85.6895 21.9667 85.8047 21.4628 85.8047 20.7714C85.8047 20.1816 85.6895 19.7245 85.459 19.4003C85.2285 19.0761 84.9043 18.914 84.4864 18.914C84.0723 18.914 83.752 19.0761 83.5254 19.4003C83.2989 19.7206 83.1856 20.2187 83.1856 20.8945ZM90.8438 21.457L90.2344 22.0663V23.9999H88.541V14.9999H90.2344V19.9863L90.5625 19.5644L92.1856 17.6601H94.2188L91.9278 20.3027L94.418 23.9999H92.4727L90.8438 21.457Z" fill="#F45078"/>
<defs>
<clipPath id="clip0">
<rect width="30" height="30" fill="white" transform="translate(5 4.99994)"/>
</clipPath>
</defs>
</svg>
