<svg
  width="100"
  height="40"
  viewBox="0 0 100 40"
  fill="none"
  xmlns="http://www.w3.org/2000/svg"
>
  <rect x="0.5" y="0.5" width="99" height="39" rx="5.5" fill="#282A36" />
  <path
    d="M44.9121 21.0947H42.0996V24H40.6348V16.8906H45.2637V18.0771H42.0996V19.9131H44.9121V21.0947ZM48.916 24C48.8509 23.873 48.8037 23.7152 48.7744 23.5264C48.4326 23.9072 47.9883 24.0977 47.4414 24.0977C46.9238 24.0977 46.4941 23.9479 46.1523 23.6484C45.8138 23.349 45.6445 22.9714 45.6445 22.5156C45.6445 21.9557 45.8512 21.526 46.2646 21.2266C46.6813 20.9271 47.2819 20.7757 48.0664 20.7725H48.7158V20.4697C48.7158 20.2256 48.6523 20.0303 48.5254 19.8838C48.4017 19.7373 48.2048 19.6641 47.9346 19.6641C47.6969 19.6641 47.5098 19.721 47.373 19.835C47.2396 19.9489 47.1729 20.1051 47.1729 20.3037H45.7617C45.7617 19.9977 45.8561 19.7145 46.0449 19.4541C46.2337 19.1937 46.5007 18.9902 46.8457 18.8438C47.1908 18.694 47.5781 18.6191 48.0078 18.6191C48.6589 18.6191 49.1748 18.7835 49.5557 19.1123C49.9398 19.4378 50.1318 19.8968 50.1318 20.4893V22.7793C50.1351 23.2806 50.2051 23.6598 50.3418 23.917V24H48.916ZM47.749 23.0186C47.9574 23.0186 48.1494 22.973 48.3252 22.8818C48.501 22.7874 48.6312 22.6621 48.7158 22.5059V21.5977H48.1885C47.4821 21.5977 47.1061 21.8418 47.0605 22.3301L47.0557 22.4131C47.0557 22.5889 47.1175 22.7337 47.2412 22.8477C47.3649 22.9616 47.5342 23.0186 47.749 23.0186ZM53.4131 22.96C53.6735 22.96 53.8851 22.8883 54.0479 22.7451C54.2106 22.6019 54.2952 22.4115 54.3018 22.1738H55.625C55.6217 22.5319 55.5241 22.8607 55.332 23.1602C55.14 23.4564 54.8763 23.6875 54.541 23.8535C54.209 24.0163 53.8411 24.0977 53.4375 24.0977C52.6823 24.0977 52.0866 23.8584 51.6504 23.3799C51.2142 22.8981 50.9961 22.234 50.9961 21.3877V21.2949C50.9961 20.4811 51.2126 19.8317 51.6455 19.3467C52.0785 18.8617 52.6725 18.6191 53.4277 18.6191C54.0885 18.6191 54.6175 18.8079 55.0146 19.1855C55.415 19.5599 55.6185 20.0596 55.625 20.6846H54.3018C54.2952 20.4111 54.2106 20.1898 54.0479 20.0205C53.8851 19.848 53.6702 19.7617 53.4033 19.7617C53.0745 19.7617 52.8255 19.8822 52.6562 20.123C52.4902 20.3607 52.4072 20.748 52.4072 21.2852V21.4316C52.4072 21.9753 52.4902 22.3659 52.6562 22.6035C52.8223 22.8411 53.0745 22.96 53.4131 22.96ZM58.8623 24.0977C58.0876 24.0977 57.4561 23.86 56.9678 23.3848C56.4827 22.9095 56.2402 22.2764 56.2402 21.4854V21.3486C56.2402 20.818 56.3428 20.3444 56.5479 19.9277C56.7529 19.5078 57.0426 19.1855 57.417 18.9609C57.7946 18.7331 58.2243 18.6191 58.7061 18.6191C59.4287 18.6191 59.9967 18.847 60.4102 19.3027C60.8268 19.7585 61.0352 20.4046 61.0352 21.2412V21.8174H57.6709C57.7165 22.1624 57.8532 22.4391 58.0811 22.6475C58.3122 22.8558 58.6035 22.96 58.9551 22.96C59.4987 22.96 59.9235 22.763 60.2295 22.3691L60.9229 23.1455C60.7113 23.445 60.4248 23.6794 60.0635 23.8486C59.7021 24.0146 59.3018 24.0977 58.8623 24.0977ZM58.7012 19.7617C58.4212 19.7617 58.1934 19.8561 58.0176 20.0449C57.8451 20.2337 57.7344 20.5039 57.6855 20.8555H59.6484V20.7432C59.6419 20.4307 59.5573 20.1898 59.3945 20.0205C59.2318 19.848 59.0007 19.7617 58.7012 19.7617ZM66.6016 21.4072C66.6016 22.2536 66.4209 22.9144 66.0596 23.3896C65.6982 23.8617 65.1937 24.0977 64.5459 24.0977C63.973 24.0977 63.5156 23.8779 63.1738 23.4385L63.1104 24H61.8408V16.5H63.252V19.1904C63.5775 18.8096 64.0055 18.6191 64.5361 18.6191C65.1807 18.6191 65.6852 18.8568 66.0498 19.332C66.4176 19.804 66.6016 20.4697 66.6016 21.3291V21.4072ZM65.1904 21.3047C65.1904 20.7708 65.1058 20.3818 64.9365 20.1377C64.7673 19.8903 64.515 19.7666 64.1797 19.7666C63.7305 19.7666 63.4212 19.9505 63.252 20.3184V22.4033C63.4245 22.7744 63.737 22.96 64.1895 22.96C64.6452 22.96 64.9447 22.7354 65.0879 22.2861C65.1562 22.0713 65.1904 21.7441 65.1904 21.3047ZM67.2559 21.3096C67.2559 20.7855 67.3568 20.3184 67.5586 19.9082C67.7604 19.498 68.0501 19.1807 68.4277 18.9561C68.8086 18.7314 69.2497 18.6191 69.751 18.6191C70.4639 18.6191 71.0449 18.8372 71.4941 19.2734C71.9466 19.7096 72.1989 20.3021 72.251 21.0508L72.2607 21.4121C72.2607 22.2227 72.0345 22.8737 71.582 23.3652C71.1296 23.8535 70.5225 24.0977 69.7607 24.0977C68.999 24.0977 68.3903 23.8535 67.9346 23.3652C67.4821 22.877 67.2559 22.2129 67.2559 21.373V21.3096ZM68.667 21.4121C68.667 21.9134 68.7614 22.2975 68.9502 22.5645C69.139 22.8281 69.4092 22.96 69.7607 22.96C70.1025 22.96 70.3695 22.8298 70.5615 22.5693C70.7536 22.3057 70.8496 21.8857 70.8496 21.3096C70.8496 20.818 70.7536 20.4372 70.5615 20.167C70.3695 19.8968 70.0993 19.7617 69.751 19.7617C69.4059 19.7617 69.139 19.8968 68.9502 20.167C68.7614 20.4339 68.667 20.849 68.667 21.4121ZM72.9102 21.3096C72.9102 20.7855 73.0111 20.3184 73.2129 19.9082C73.4147 19.498 73.7044 19.1807 74.082 18.9561C74.4629 18.7314 74.904 18.6191 75.4053 18.6191C76.1182 18.6191 76.6992 18.8372 77.1484 19.2734C77.6009 19.7096 77.8532 20.3021 77.9053 21.0508L77.915 21.4121C77.915 22.2227 77.6888 22.8737 77.2363 23.3652C76.7839 23.8535 76.1768 24.0977 75.415 24.0977C74.6533 24.0977 74.0446 23.8535 73.5889 23.3652C73.1364 22.877 72.9102 22.2129 72.9102 21.373V21.3096ZM74.3213 21.4121C74.3213 21.9134 74.4157 22.2975 74.6045 22.5645C74.7933 22.8281 75.0635 22.96 75.415 22.96C75.7568 22.96 76.0238 22.8298 76.2158 22.5693C76.4079 22.3057 76.5039 21.8857 76.5039 21.3096C76.5039 20.818 76.4079 20.4372 76.2158 20.167C76.0238 19.8968 75.7536 19.7617 75.4053 19.7617C75.0602 19.7617 74.7933 19.8968 74.6045 20.167C74.4157 20.4339 74.3213 20.849 74.3213 21.4121ZM80.7031 21.8809L80.1953 22.3887V24H78.7842V16.5H80.1953V20.6553L80.4688 20.3037L81.8213 18.7168H83.5156L81.6064 20.9189L83.6816 24H82.0605L80.7031 21.8809Z"
    fill="#F45078"
  />
  <path
    d="M20 35C28.2843 35 35 28.2843 35 20C35 11.7157 28.2843 5 20 5C11.7157 5 5 11.7157 5 20C5 28.2843 11.7157 35 20 35Z"
    fill="#F45078"
  />
  <path
    d="M23.6605 19.768H20.9839V29.5737H16.9287V19.768H15V16.3219H16.9287V14.0919C16.9287 12.4971 17.6862 10 21.02 10L24.0239 10.0126V13.3576H21.8444C21.4869 13.3576 20.9842 13.5362 20.9842 14.2969V16.3251H24.0148L23.6605 19.768Z"
    fill="white"
  />
  <rect x="0.5" y="0.5" width="99" height="39" rx="5.5" stroke="#DDDDDD" />
</svg>
