<svg width="100" height="40" viewBox="0 0 100 40" fill="none" xmlns="http://www.w3.org/2000/svg">
<rect width="100" height="40" rx="6" fill="#282A36"/>
<g clip-path="url(#clip0)">
<path d="M20 34.999C28.2843 34.999 35 28.2833 35 19.999C35 11.7148 28.2843 4.99902 20 4.99902C11.7157 4.99902 5 11.7148 5 19.999C5 28.2833 11.7157 34.999 20 34.999Z" fill="#F45078"/>
<path d="M28.9624 21.2067V27.3909H25.3769V21.6212C25.3769 20.1725 24.8593 19.1831 23.5611 19.1831C22.5704 19.1831 21.9819 19.8492 21.722 20.4941C21.6276 20.7246 21.6033 21.0447 21.6033 21.368V27.3906H18.0176C18.0176 27.3906 18.0657 17.6186 18.0176 16.6071H21.6035V18.1352C21.5963 18.1473 21.5862 18.159 21.5797 18.1705H21.6035V18.1352C22.08 17.4021 22.9298 16.3539 24.8349 16.3539C27.1938 16.3539 28.9624 17.8951 28.9624 21.2067ZM14.2667 11.4091C13.0401 11.4091 12.2377 12.2142 12.2377 13.272C12.2377 14.3073 13.0169 15.1357 14.2196 15.1357H14.2429C15.4934 15.1357 16.271 14.3073 16.271 13.272C16.2472 12.2142 15.4934 11.4091 14.2667 11.4091ZM12.4508 27.3909H16.0352V16.6071H12.4508V27.3909Z" fill="#F1F2F2"/>
</g>
<path d="M44.5195 22.5879H48.252V24H42.7617V15.4688H44.5195V22.5879ZM50.9414 24H49.2422V17.6602H50.9414V24ZM49.1426 16.0195C49.1426 15.7656 49.2266 15.5566 49.3945 15.3926C49.5664 15.2285 49.7988 15.1465 50.0918 15.1465C50.3809 15.1465 50.6113 15.2285 50.7832 15.3926C50.9551 15.5566 51.041 15.7656 51.041 16.0195C51.041 16.2773 50.9531 16.4883 50.7773 16.6523C50.6055 16.8164 50.377 16.8984 50.0918 16.8984C49.8066 16.8984 49.5762 16.8164 49.4004 16.6523C49.2285 16.4883 49.1426 16.2773 49.1426 16.0195ZM53.9004 17.6602L53.9531 18.3926C54.4062 17.8262 55.0137 17.543 55.7754 17.543C56.4473 17.543 56.9473 17.7402 57.2754 18.1348C57.6035 18.5293 57.7715 19.1191 57.7793 19.9043V24H56.0859V19.9453C56.0859 19.5859 56.0078 19.3262 55.8516 19.166C55.6953 19.002 55.4355 18.9199 55.0723 18.9199C54.5957 18.9199 54.2383 19.123 54 19.5293V24H52.3066V17.6602H53.9004ZM61.3711 21.457L60.7617 22.0664V24H59.0684V15H60.7617V19.9863L61.0898 19.5645L62.7129 17.6602H64.7461L62.4551 20.3027L64.9453 24H63L61.3711 21.457ZM68.2793 24.1172C67.3496 24.1172 66.5918 23.832 66.0059 23.2617C65.4238 22.6914 65.1328 21.9316 65.1328 20.9824V20.8184C65.1328 20.1816 65.2559 19.6133 65.502 19.1133C65.748 18.6094 66.0957 18.2227 66.5449 17.9531C66.998 17.6797 67.5137 17.543 68.0918 17.543C68.959 17.543 69.6406 17.8164 70.1367 18.3633C70.6367 18.9102 70.8867 19.6855 70.8867 20.6895V21.3809H66.8496C66.9043 21.7949 67.0684 22.127 67.3418 22.377C67.6191 22.627 67.9688 22.752 68.3906 22.752C69.043 22.752 69.5527 22.5156 69.9199 22.043L70.752 22.9746C70.498 23.334 70.1543 23.6152 69.7207 23.8184C69.2871 24.0176 68.8066 24.1172 68.2793 24.1172ZM68.0859 18.9141C67.75 18.9141 67.4766 19.0273 67.2656 19.2539C67.0586 19.4805 66.9258 19.8047 66.8672 20.2266H69.2227V20.0918C69.2148 19.7168 69.1133 19.4277 68.918 19.2246C68.7227 19.0176 68.4453 18.9141 68.0859 18.9141ZM71.5898 20.7832C71.5898 19.7949 71.8105 19.0078 72.252 18.4219C72.6973 17.8359 73.3047 17.543 74.0742 17.543C74.6914 17.543 75.2012 17.7734 75.6035 18.2344V15H77.3027V24H75.7734L75.6914 23.3262C75.2695 23.8535 74.7266 24.1172 74.0625 24.1172C73.3164 24.1172 72.7168 23.8242 72.2637 23.2383C71.8145 22.6484 71.5898 21.8301 71.5898 20.7832ZM73.2832 20.9062C73.2832 21.5 73.3867 21.9551 73.5938 22.2715C73.8008 22.5879 74.1016 22.7461 74.4961 22.7461C75.0195 22.7461 75.3887 22.5254 75.6035 22.084V19.582C75.3926 19.1406 75.0273 18.9199 74.5078 18.9199C73.6914 18.9199 73.2832 19.582 73.2832 20.9062ZM80.5957 24H78.8379V15.4688H80.5957V24ZM83.6777 17.6602L83.7305 18.3926C84.1836 17.8262 84.791 17.543 85.5527 17.543C86.2246 17.543 86.7246 17.7402 87.0527 18.1348C87.3809 18.5293 87.5488 19.1191 87.5566 19.9043V24H85.8633V19.9453C85.8633 19.5859 85.7852 19.3262 85.6289 19.166C85.4727 19.002 85.2129 18.9199 84.8496 18.9199C84.373 18.9199 84.0156 19.123 83.7773 19.5293V24H82.084V17.6602H83.6777Z" fill="#F45078"/>
<defs>
<clipPath id="clip0">
<rect width="30" height="30" fill="white" transform="translate(5 5)"/>
</clipPath>
</defs>
</svg>
