<svg
  width="100"
  height="40"
  viewBox="0 0 100 40"
  fill="none"
  xmlns="http://www.w3.org/2000/svg"
>
  <rect x="0.5" y="0.5" width="99" height="39" rx="5.5" fill="#282A36" />
  <g clip-path="url(#clip0)">
    <path
      d="M20 34.999C28.2843 34.999 35 28.2833 35 19.999C35 11.7148 28.2843 4.99902 20 4.99902C11.7157 4.99902 5 11.7148 5 19.999C5 28.2833 11.7157 34.999 20 34.999Z"
      fill="#F45078"
    />
    <path
      d="M28.9624 21.2067V27.3909H25.3769V21.6212C25.3769 20.1725 24.8593 19.1831 23.5611 19.1831C22.5704 19.1831 21.9819 19.8492 21.722 20.4941C21.6276 20.7246 21.6033 21.0447 21.6033 21.368V27.3906H18.0176C18.0176 27.3906 18.0657 17.6186 18.0176 16.6071H21.6035V18.1352C21.5963 18.1473 21.5862 18.159 21.5797 18.1705H21.6035V18.1352C22.08 17.4021 22.9298 16.3539 24.8349 16.3539C27.1938 16.3539 28.9624 17.8951 28.9624 21.2067ZM14.2667 11.4091C13.0401 11.4091 12.2377 12.2142 12.2377 13.272C12.2377 14.3073 13.0169 15.1357 14.2196 15.1357H14.2429C15.4934 15.1357 16.271 14.3073 16.271 13.272C16.2472 12.2142 15.4934 11.4091 14.2667 11.4091ZM12.4508 27.3909H16.0352V16.6071H12.4508V27.3909Z"
      fill="#F1F2F2"
    />
  </g>
  <path
    d="M42.0996 22.8232H45.21V24H40.6348V16.8906H42.0996V22.8232ZM47.4512 24H46.0352V18.7168H47.4512V24ZM45.9521 17.3496C45.9521 17.138 46.0221 16.9639 46.1621 16.8271C46.3053 16.6904 46.499 16.6221 46.7432 16.6221C46.984 16.6221 47.1761 16.6904 47.3193 16.8271C47.4626 16.9639 47.5342 17.138 47.5342 17.3496C47.5342 17.5645 47.4609 17.7402 47.3145 17.877C47.1712 18.0137 46.9808 18.082 46.7432 18.082C46.5055 18.082 46.3135 18.0137 46.167 17.877C46.0238 17.7402 45.9521 17.5645 45.9521 17.3496ZM49.917 18.7168L49.9609 19.3271C50.3385 18.8551 50.8447 18.6191 51.4795 18.6191C52.0394 18.6191 52.4561 18.7835 52.7295 19.1123C53.0029 19.4411 53.1429 19.9326 53.1494 20.5869V24H51.7383V20.6211C51.7383 20.3216 51.6732 20.1051 51.543 19.9717C51.4128 19.835 51.1963 19.7666 50.8936 19.7666C50.4964 19.7666 50.1986 19.9359 50 20.2744V24H48.5889V18.7168H49.917ZM56.1426 21.8809L55.6348 22.3887V24H54.2236V16.5H55.6348V20.6553L55.9082 20.3037L57.2607 18.7168H58.9551L57.0459 20.9189L59.1211 24H57.5L56.1426 21.8809ZM61.8994 24.0977C61.1247 24.0977 60.4932 23.86 60.0049 23.3848C59.5199 22.9095 59.2773 22.2764 59.2773 21.4854V21.3486C59.2773 20.818 59.3799 20.3444 59.585 19.9277C59.79 19.5078 60.0798 19.1855 60.4541 18.9609C60.8317 18.7331 61.2614 18.6191 61.7432 18.6191C62.4658 18.6191 63.0339 18.847 63.4473 19.3027C63.8639 19.7585 64.0723 20.4046 64.0723 21.2412V21.8174H60.708C60.7536 22.1624 60.8903 22.4391 61.1182 22.6475C61.3493 22.8558 61.6406 22.96 61.9922 22.96C62.5358 22.96 62.9606 22.763 63.2666 22.3691L63.96 23.1455C63.7484 23.445 63.4619 23.6794 63.1006 23.8486C62.7393 24.0146 62.3389 24.0977 61.8994 24.0977ZM61.7383 19.7617C61.4583 19.7617 61.2305 19.8561 61.0547 20.0449C60.8822 20.2337 60.7715 20.5039 60.7227 20.8555H62.6855V20.7432C62.679 20.4307 62.5944 20.1898 62.4316 20.0205C62.2689 19.848 62.0378 19.7617 61.7383 19.7617ZM64.6582 21.3193C64.6582 20.4958 64.8421 19.8398 65.21 19.3516C65.5811 18.8633 66.0872 18.6191 66.7285 18.6191C67.2428 18.6191 67.6676 18.8112 68.0029 19.1953V16.5H69.4189V24H68.1445L68.0762 23.4385C67.7246 23.8779 67.2721 24.0977 66.7188 24.0977C66.097 24.0977 65.5973 23.8535 65.2197 23.3652C64.8454 22.8737 64.6582 22.1917 64.6582 21.3193ZM66.0693 21.4219C66.0693 21.9167 66.1556 22.2959 66.3281 22.5596C66.5007 22.8232 66.7513 22.9551 67.0801 22.9551C67.5163 22.9551 67.8239 22.7712 68.0029 22.4033V20.3184C67.8271 19.9505 67.5228 19.7666 67.0898 19.7666C66.4095 19.7666 66.0693 20.3184 66.0693 21.4219ZM72.1631 24H70.6982V16.8906H72.1631V24ZM74.7314 18.7168L74.7754 19.3271C75.153 18.8551 75.6592 18.6191 76.2939 18.6191C76.8538 18.6191 77.2705 18.7835 77.5439 19.1123C77.8174 19.4411 77.9574 19.9326 77.9639 20.5869V24H76.5527V20.6211C76.5527 20.3216 76.4876 20.1051 76.3574 19.9717C76.2272 19.835 76.0107 19.7666 75.708 19.7666C75.3109 19.7666 75.013 19.9359 74.8145 20.2744V24H73.4033V18.7168H74.7314Z"
    fill="#F45078"
  />
  <rect x="0.5" y="0.5" width="99" height="39" rx="5.5" stroke="#DDDDDD" />
  <defs>
    <clipPath id="clip0">
      <rect width="30" height="30" fill="white" transform="translate(5 5)" />
    </clipPath>
  </defs>
</svg>
